# xmcd CD database file
#
# Track frame offsets:
#	150
#	36373
#	61944
#	88506
#	110603
#	129049
#	150324
#	180717
#	213407
#	237622
#
# Disc length: 3478 seconds
#
# Revision: 0
# Processed by: cddbd v1.5.2PL0 Copyright (c) Steve Scherf et al.
# Submitted via: CDex 1.70beta2
#
DISCID=7f0d940a
DTITLE=Grupo Galé - 15 Aniversario CD 2 (Galé Romántico)
DYEAR=2006
DGENRE=Salsa
TTITLE0=Para Siempre
TTITLE1=Perdóname
TTITLE2=Ya No Te Puedo Amar - Eres Así
TTITLE3=Beso A Beso
TTITLE4=Como Duele Llorar
TTITLE5=Mas Que Amor
TTITLE6=Nadie Te Ama Como Yo
TTITLE7=Fantasia
TTITLE8=Soy Como Soy
TTITLE9=Nada Puedo Hacer
EXTD=YEAR: 2006
EXTT0=
EXTT1=
EXTT2=
EXTT3=
EXTT4=
EXTT5=
EXTT6=
EXTT7=
EXTT8=
EXTT9=
PLAYORDER=
